<svg width="24" height="24" viewBox="0 0 24 24" fill="none" xmlns="http://www.w3.org/2000/svg">
<path d="M0 17.284L2.027 20.789H2.028C2.22997 21.1897 2.53921 21.5265 2.92128 21.7619C3.30336 21.9972 3.74326 22.1219 4.192 22.122H17.649L14.857 17.284H0ZM24 17.309C24 16.825 23.857 16.374 23.612 15.995L15.728 2.289C15.5218 1.89981 15.2134 1.57417 14.836 1.34706C14.4586 1.11996 14.0265 0.999974 13.586 1H9.419L21.598 22.101L23.518 18.776C23.896 18.139 24 17.857 24 17.309ZM12.871 13.847L7.428 4.419L1.984 13.847H12.871Z" fill="#F8F8F8"/>
</svg>
