<svg width="389" height="349" viewBox="0 0 389 349" fill="none" xmlns="http://www.w3.org/2000/svg">
<path d="M59 25H89V55H59V25Z" stroke="#4F4F4F" stroke-dasharray="2 2"/>
<path d="M89 25H119V55H89V25Z" stroke="#4F4F4F" stroke-dasharray="2 2"/>
<path d="M119 25H149V55H119V25Z" stroke="#4F4F4F" stroke-dasharray="2 2"/>
<path d="M59 55H89V85H59V55Z" stroke="#4F4F4F" stroke-dasharray="2 2"/>
<path d="M89 55H119V85H89V55Z" stroke="#4F4F4F" stroke-dasharray="2 2"/>
<path d="M119 55H149V85H119V55Z" stroke="#4F4F4F" stroke-dasharray="2 2"/>
<path d="M59 85H89V115H59V85Z" stroke="#4F4F4F" stroke-dasharray="2 2"/>
<path d="M89 85H119V115H89V85Z" stroke="#4F4F4F" stroke-dasharray="2 2"/>
<path d="M119 85H149V115H119V85Z" stroke="#4F4F4F" stroke-dasharray="2 2"/>
<path d="M59 115H89V145H59V115Z" stroke="#4F4F4F" stroke-dasharray="2 2"/>
<path d="M89 115H119V145H89V115Z" stroke="#4F4F4F" stroke-dasharray="2 2"/>
<path d="M119 115H149V145H119V115Z" stroke="#4F4F4F" stroke-dasharray="2 2"/>
<path d="M149 25H179V55H149V25Z" stroke="#4F4F4F" stroke-dasharray="2 2"/>
<g filter="url(#filter0_d_97_385)">
<path d="M179 25H209V55H179V25Z" stroke="#4F4F4F" stroke-dasharray="2 2" shape-rendering="crispEdges"/>
</g>
<g filter="url(#filter1_d_97_385)">
<path d="M209 25H239V55H209V25Z" stroke="#4F4F4F" stroke-dasharray="2 2" shape-rendering="crispEdges"/>
</g>
<path d="M149 55H179V85H149V55Z" stroke="#4F4F4F" stroke-dasharray="2 2"/>
<path d="M179 55H209V85H179V55Z" stroke="#4F4F4F" stroke-dasharray="2 2"/>
<path d="M209 55H239V85H209V55Z" stroke="#4F4F4F" stroke-dasharray="2 2"/>
<path d="M149 85H179V115H149V85Z" stroke="#4F4F4F" stroke-dasharray="2 2"/>
<path d="M179 85H209V115H179V85Z" stroke="#4F4F4F" stroke-dasharray="2 2"/>
<path d="M209 85H239V115H209V85Z" stroke="#4F4F4F" stroke-dasharray="2 2"/>
<path d="M149 115H179V145H149V115Z" stroke="#4F4F4F" stroke-dasharray="2 2"/>
<path d="M179 115H209V145H179V115Z" stroke="#4F4F4F" stroke-dasharray="2 2"/>
<path d="M209 115H239V145H209V115Z" stroke="#4F4F4F" stroke-dasharray="2 2"/>
<path d="M239 25H269V55H239V25Z" stroke="#4F4F4F" stroke-dasharray="2 2"/>
<path d="M269 25H299V55H269V25Z" stroke="#4F4F4F" stroke-dasharray="2 2"/>
<path d="M299 25H329V55H299V25Z" stroke="#4F4F4F" stroke-dasharray="2 2"/>
<path d="M239 55H269V85H239V55Z" stroke="#4F4F4F" stroke-dasharray="2 2"/>
<path d="M269 55H299V85H269V55Z" stroke="#4F4F4F" stroke-dasharray="2 2"/>
<path d="M299 55H329V85H299V55Z" stroke="#4F4F4F" stroke-dasharray="2 2"/>
<path d="M239 85H269V115H239V85Z" stroke="#4F4F4F" stroke-dasharray="2 2"/>
<path d="M269 85H299V115H269V85Z" stroke="#4F4F4F" stroke-dasharray="2 2"/>
<path d="M299 85H329V115H299V85Z" stroke="#4F4F4F" stroke-dasharray="2 2"/>
<path d="M239 115H269V145H239V115Z" stroke="#4F4F4F" stroke-dasharray="2 2"/>
<path d="M269 115H299V145H269V115Z" stroke="#4F4F4F" stroke-dasharray="2 2"/>
<path d="M299 115H329V145H299V115Z" stroke="#4F4F4F" stroke-dasharray="2 2"/>
<path d="M329 25H359V55H329V25Z" stroke="#4F4F4F" stroke-dasharray="2 2"/>
<path d="M329 55H359V85H329V55Z" stroke="#4F4F4F" stroke-dasharray="2 2"/>
<path d="M329 85H359V115H329V85Z" stroke="#4F4F4F" stroke-dasharray="2 2"/>
<path d="M329 115H359V145H329V115Z" stroke="#4F4F4F" stroke-dasharray="2 2"/>
<path d="M59 145H89V175H59V145Z" stroke="#4F4F4F" stroke-dasharray="2 2"/>
<path d="M89 145H119V175H89V145Z" stroke="#4F4F4F" stroke-dasharray="2 2"/>
<path d="M119 145H149V175H119V145Z" stroke="#4F4F4F" stroke-dasharray="2 2"/>
<path d="M149 145H179V175H149V145Z" stroke="#4F4F4F" stroke-dasharray="2 2"/>
<path d="M179 145H209V175H179V145Z" stroke="#4F4F4F" stroke-dasharray="2 2"/>
<path d="M209 145H239V175H209V145Z" stroke="#4F4F4F" stroke-dasharray="2 2"/>
<path d="M239 145H269V175H239V145Z" stroke="#4F4F4F" stroke-dasharray="2 2"/>
<path d="M269 145H299V175H269V145Z" stroke="#4F4F4F" stroke-dasharray="2 2"/>
<path d="M299 145H329V175H299V145Z" stroke="#4F4F4F" stroke-dasharray="2 2"/>
<path d="M329 145H359V175H329V145Z" stroke="#4F4F4F" stroke-dasharray="2 2"/>
<path d="M59 175H89V205H59V175Z" stroke="#4F4F4F" stroke-dasharray="2 2"/>
<path d="M89 175H119V205H89V175Z" stroke="#4F4F4F" stroke-dasharray="2 2"/>
<path d="M119 175H149V205H119V175Z" stroke="#4F4F4F" stroke-dasharray="2 2"/>
<path d="M59 205H89V235H59V205Z" stroke="#4F4F4F" stroke-dasharray="2 2"/>
<path d="M89 205H119V235H89V205Z" stroke="#4F4F4F" stroke-dasharray="2 2"/>
<path d="M119 205H149V235H119V205Z" stroke="#4F4F4F" stroke-dasharray="2 2"/>
<path d="M59 235H89V265H59V235Z" stroke="#4F4F4F" stroke-dasharray="2 2"/>
<path d="M89 235H119V265H89V235Z" stroke="#4F4F4F" stroke-dasharray="2 2"/>
<path d="M119 235H149V265H119V235Z" stroke="#4F4F4F" stroke-dasharray="2 2"/>
<path d="M59 265H89V295H59V265Z" stroke="#4F4F4F" stroke-dasharray="2 2"/>
<path d="M89 265H119V295H89V265Z" stroke="#4F4F4F" stroke-dasharray="2 2"/>
<path d="M119 265H149V295H119V265Z" stroke="#4F4F4F" stroke-dasharray="2 2"/>
<path d="M149 175H179V205H149V175Z" stroke="#4F4F4F" stroke-dasharray="2 2"/>
<path d="M179 175H209V205H179V175Z" stroke="#4F4F4F" stroke-dasharray="2 2"/>
<path d="M209 175H239V205H209V175Z" stroke="#4F4F4F" stroke-dasharray="2 2"/>
<path d="M149 205H179V235H149V205Z" stroke="#4F4F4F" stroke-dasharray="2 2"/>
<path d="M179 205H209V235H179V205Z" stroke="#4F4F4F" stroke-dasharray="2 2"/>
<path d="M209 205H239V235H209V205Z" stroke="#4F4F4F" stroke-dasharray="2 2"/>
<path d="M149 235H179V265H149V235Z" stroke="#4F4F4F" stroke-dasharray="2 2"/>
<path d="M179 235H209V265H179V235Z" stroke="#4F4F4F" stroke-dasharray="2 2"/>
<path d="M209 235H239V265H209V235Z" stroke="#4F4F4F" stroke-dasharray="2 2"/>
<path d="M149 265H179V295H149V265Z" stroke="#4F4F4F" stroke-dasharray="2 2"/>
<path d="M179 265H209V295H179V265Z" stroke="#4F4F4F" stroke-dasharray="2 2"/>
<path d="M209 265H239V295H209V265Z" stroke="#4F4F4F" stroke-dasharray="2 2"/>
<path d="M239 175H269V205H239V175Z" stroke="#4F4F4F" stroke-dasharray="2 2"/>
<path d="M269 175H299V205H269V175Z" stroke="#4F4F4F" stroke-dasharray="2 2"/>
<path d="M299 175H329V205H299V175Z" stroke="#4F4F4F" stroke-dasharray="2 2"/>
<path d="M239 205H269V235H239V205Z" stroke="#4F4F4F" stroke-dasharray="2 2"/>
<path d="M269 205H299V235H269V205Z" stroke="#4F4F4F" stroke-dasharray="2 2"/>
<path d="M299 205H329V235H299V205Z" stroke="#4F4F4F" stroke-dasharray="2 2"/>
<path d="M239 235H269V265H239V235Z" stroke="#4F4F4F" stroke-dasharray="2 2"/>
<path d="M269 235H299V265H269V235Z" stroke="#4F4F4F" stroke-dasharray="2 2"/>
<path d="M299 235H329V265H299V235Z" stroke="#4F4F4F" stroke-dasharray="2 2"/>
<path d="M239 265H269V295H239V265Z" stroke="#4F4F4F" stroke-dasharray="2 2"/>
<path d="M269 265H299V295H269V265Z" stroke="#4F4F4F" stroke-dasharray="2 2"/>
<path d="M299 265H329V295H299V265Z" stroke="#4F4F4F" stroke-dasharray="2 2"/>
<path d="M329 175H359V205H329V175Z" stroke="#4F4F4F" stroke-dasharray="2 2"/>
<path d="M329 205H359V235H329V205Z" stroke="#4F4F4F" stroke-dasharray="2 2"/>
<path d="M329 235H359V265H329V235Z" stroke="#4F4F4F" stroke-dasharray="2 2"/>
<path d="M329 265H359V295H329V265Z" stroke="#4F4F4F" stroke-dasharray="2 2"/>
<path d="M59 295H89V325H59V295Z" stroke="#4F4F4F" stroke-dasharray="2 2"/>
<path d="M89 295H119V325H89V295Z" stroke="#4F4F4F" stroke-dasharray="2 2"/>
<path d="M119 295H149V325H119V295Z" stroke="#4F4F4F" stroke-dasharray="2 2"/>
<path d="M149 295H179V325H149V295Z" stroke="#4F4F4F" stroke-dasharray="2 2"/>
<path d="M179 295H209V325H179V295Z" stroke="#4F4F4F" stroke-dasharray="2 2"/>
<path d="M209 295H239V325H209V295Z" stroke="#4F4F4F" stroke-dasharray="2 2"/>
<path d="M239 295H269V325H239V295Z" stroke="#4F4F4F" stroke-dasharray="2 2"/>
<path d="M269 295H299V325H269V295Z" stroke="#4F4F4F" stroke-dasharray="2 2"/>
<path d="M299 295H329V325H299V295Z" stroke="#4F4F4F" stroke-dasharray="2 2"/>
<path d="M329 295H359V325H329V295Z" stroke="#4F4F4F" stroke-dasharray="2 2"/>
<path d="M209 25L209 325" stroke="#7A7A7A" stroke-width="1.5"/>
<path d="M359 175L59 175" stroke="#7A7A7A" stroke-width="1.5"/>
<path d="M182.773 6.27273C182.705 5.69697 182.428 5.25 181.943 4.93182C181.458 4.61364 180.864 4.45455 180.159 4.45455C179.644 4.45455 179.193 4.53788 178.807 4.70455C178.424 4.87121 178.125 5.10038 177.909 5.39205C177.697 5.68371 177.591 6.01515 177.591 6.38636C177.591 6.69697 177.665 6.96401 177.812 7.1875C177.964 7.4072 178.157 7.59091 178.392 7.73864C178.627 7.88258 178.873 8.00189 179.131 8.09659C179.388 8.1875 179.625 8.26136 179.841 8.31818L181.023 8.63636C181.326 8.71591 181.663 8.82576 182.034 8.96591C182.409 9.10606 182.767 9.29735 183.108 9.53977C183.453 9.77841 183.737 10.0852 183.96 10.4602C184.184 10.8352 184.295 11.2955 184.295 11.8409C184.295 12.4697 184.131 13.0379 183.801 13.5455C183.475 14.053 182.998 14.4564 182.369 14.7557C181.744 15.0549 180.985 15.2045 180.091 15.2045C179.258 15.2045 178.536 15.0701 177.926 14.8011C177.32 14.5322 176.843 14.1572 176.494 13.6761C176.15 13.1951 175.955 12.6364 175.909 12H177.364C177.402 12.4394 177.549 12.803 177.807 13.0909C178.068 13.375 178.398 13.5871 178.795 13.7273C179.197 13.8636 179.629 13.9318 180.091 13.9318C180.629 13.9318 181.112 13.8447 181.54 13.6705C181.968 13.4924 182.307 13.2462 182.557 12.9318C182.807 12.6136 182.932 12.2424 182.932 11.8182C182.932 11.4318 182.824 11.1174 182.608 10.875C182.392 10.6326 182.108 10.4356 181.756 10.2841C181.403 10.1326 181.023 10 180.614 9.88636L179.182 9.47727C178.273 9.21591 177.553 8.8428 177.023 8.35795C176.492 7.87311 176.227 7.23864 176.227 6.45455C176.227 5.80303 176.403 5.23485 176.756 4.75C177.112 4.26136 177.589 3.88258 178.188 3.61364C178.79 3.34091 179.462 3.20455 180.205 3.20455C180.955 3.20455 181.621 3.33901 182.205 3.60795C182.788 3.87311 183.25 4.23674 183.591 4.69886C183.936 5.16098 184.117 5.68561 184.136 6.27273H182.773ZM190.226 6.27273V7.40909H185.703V6.27273H190.226ZM187.021 4.18182H188.362V12.5C188.362 12.8788 188.417 13.1629 188.527 13.3523C188.641 13.5379 188.785 13.6629 188.959 13.7273C189.137 13.7879 189.324 13.8182 189.521 13.8182C189.669 13.8182 189.79 13.8106 189.885 13.7955C189.98 13.7765 190.055 13.7614 190.112 13.75L190.385 14.9545C190.294 14.9886 190.167 15.0227 190.004 15.0568C189.841 15.0947 189.635 15.1136 189.385 15.1136C189.006 15.1136 188.635 15.0322 188.271 14.8693C187.911 14.7064 187.612 14.4583 187.374 14.125C187.139 13.7917 187.021 13.3712 187.021 12.8636V4.18182ZM197.743 11.4318V6.27273H199.084V15H197.743V13.5227H197.652C197.447 13.9659 197.129 14.3428 196.697 14.6534C196.266 14.9602 195.72 15.1136 195.061 15.1136C194.516 15.1136 194.031 14.9943 193.607 14.7557C193.182 14.5133 192.849 14.1496 192.607 13.6648C192.364 13.1761 192.243 12.5606 192.243 11.8182V6.27273H193.584V11.7273C193.584 12.3636 193.762 12.8712 194.118 13.25C194.478 13.6288 194.936 13.8182 195.493 13.8182C195.826 13.8182 196.165 13.733 196.51 13.5625C196.858 13.392 197.15 13.1307 197.385 12.7784C197.624 12.4261 197.743 11.9773 197.743 11.4318ZM204.835 15.1818C204.108 15.1818 203.466 14.9981 202.909 14.6307C202.352 14.2595 201.917 13.7367 201.602 13.0625C201.288 12.3845 201.131 11.5833 201.131 10.6591C201.131 9.74242 201.288 8.94697 201.602 8.27273C201.917 7.59848 202.354 7.07765 202.915 6.71023C203.475 6.3428 204.123 6.15909 204.858 6.15909C205.426 6.15909 205.875 6.25379 206.205 6.44318C206.538 6.62879 206.792 6.84091 206.966 7.07955C207.144 7.31439 207.282 7.50758 207.381 7.65909H207.494V3.36364H208.835V15H207.54V13.6591H207.381C207.282 13.8182 207.142 14.0189 206.96 14.2614C206.778 14.5 206.519 14.714 206.182 14.9034C205.845 15.089 205.396 15.1818 204.835 15.1818ZM205.017 13.9773C205.555 13.9773 206.009 13.8371 206.381 13.5568C206.752 13.2727 207.034 12.8807 207.227 12.3807C207.42 11.8769 207.517 11.2955 207.517 10.6364C207.517 9.98485 207.422 9.41477 207.233 8.92614C207.044 8.43371 206.763 8.05114 206.392 7.77841C206.021 7.50189 205.563 7.36364 205.017 7.36364C204.449 7.36364 203.975 7.50947 203.597 7.80114C203.222 8.08902 202.939 8.48106 202.75 8.97727C202.564 9.4697 202.472 10.0227 202.472 10.6364C202.472 11.2576 202.566 11.822 202.756 12.3295C202.949 12.8333 203.233 13.2348 203.608 13.5341C203.987 13.8295 204.456 13.9773 205.017 13.9773ZM212.341 18.2727C212.114 18.2727 211.911 18.2538 211.733 18.2159C211.555 18.1818 211.432 18.1477 211.364 18.1136L211.705 16.9318C212.03 17.0152 212.318 17.0455 212.568 17.0227C212.818 17 213.04 16.8883 213.233 16.6875C213.43 16.4905 213.61 16.1705 213.773 15.7273L214.023 15.0455L210.795 6.27273H212.25L214.659 13.2273H214.75L217.159 6.27273H218.614L214.909 16.2727C214.742 16.7235 214.536 17.0966 214.29 17.392C214.044 17.6913 213.758 17.9129 213.432 18.0568C213.11 18.2008 212.746 18.2727 212.341 18.2727ZM220.384 15V6.27273H221.724V15H220.384ZM221.065 4.81818C220.804 4.81818 220.579 4.72917 220.389 4.55114C220.204 4.37311 220.111 4.15909 220.111 3.90909C220.111 3.65909 220.204 3.44508 220.389 3.26705C220.579 3.08902 220.804 3 221.065 3C221.327 3 221.55 3.08902 221.736 3.26705C221.925 3.44508 222.02 3.65909 222.02 3.90909C222.02 4.15909 221.925 4.37311 221.736 4.55114C221.55 4.72917 221.327 4.81818 221.065 4.81818ZM225.521 9.75V15H224.18V6.27273H225.476V7.63636H225.589C225.794 7.19318 226.105 6.83712 226.521 6.56818C226.938 6.29545 227.476 6.15909 228.135 6.15909C228.726 6.15909 229.243 6.2803 229.686 6.52273C230.129 6.76136 230.474 7.125 230.72 7.61364C230.966 8.09848 231.089 8.71212 231.089 9.45455V15H229.749V9.54545C229.749 8.85985 229.571 8.32576 229.214 7.94318C228.858 7.55682 228.37 7.36364 227.749 7.36364C227.321 7.36364 226.938 7.45644 226.601 7.64205C226.268 7.82765 226.004 8.09848 225.811 8.45455C225.618 8.81061 225.521 9.24242 225.521 9.75ZM237.062 18.4545C236.415 18.4545 235.858 18.3712 235.392 18.2045C234.926 18.0417 234.538 17.8258 234.227 17.5568C233.92 17.2917 233.676 17.0076 233.494 16.7045L234.562 15.9545C234.684 16.1136 234.837 16.2955 235.023 16.5C235.208 16.7083 235.462 16.8883 235.784 17.0398C236.11 17.1951 236.536 17.2727 237.062 17.2727C237.767 17.2727 238.348 17.1023 238.807 16.7614C239.265 16.4205 239.494 15.8864 239.494 15.1591V13.3864H239.381C239.282 13.5455 239.142 13.7424 238.96 13.9773C238.782 14.2083 238.525 14.4148 238.188 14.5966C237.854 14.7746 237.403 14.8636 236.835 14.8636C236.131 14.8636 235.498 14.697 234.938 14.3636C234.381 14.0303 233.939 13.5455 233.614 12.9091C233.292 12.2727 233.131 11.5 233.131 10.5909C233.131 9.69697 233.288 8.91856 233.602 8.25568C233.917 7.58901 234.354 7.07386 234.915 6.71023C235.475 6.3428 236.123 6.15909 236.858 6.15909C237.426 6.15909 237.877 6.25379 238.21 6.44318C238.547 6.62879 238.805 6.84091 238.983 7.07955C239.165 7.31439 239.305 7.50758 239.403 7.65909H239.54V6.27273H240.835V15.25C240.835 16 240.665 16.6098 240.324 17.0795C239.987 17.553 239.532 17.8996 238.96 18.1193C238.392 18.3428 237.759 18.4545 237.062 18.4545ZM237.017 13.6591C237.555 13.6591 238.009 13.536 238.381 13.2898C238.752 13.0436 239.034 12.6894 239.227 12.2273C239.42 11.7652 239.517 11.2121 239.517 10.5682C239.517 9.93939 239.422 9.38447 239.233 8.90341C239.044 8.42235 238.763 8.04545 238.392 7.77273C238.021 7.5 237.563 7.36364 237.017 7.36364C236.449 7.36364 235.975 7.50758 235.597 7.79545C235.222 8.08333 234.939 8.4697 234.75 8.95455C234.564 9.43939 234.472 9.97727 234.472 10.5682C234.472 11.1742 234.566 11.7102 234.756 12.1761C234.949 12.6383 235.233 13.0019 235.608 13.267C235.987 13.5284 236.456 13.6591 237.017 13.6591Z" fill="white"/>
<path d="M10.7727 173H9.36364C9.2803 172.595 9.13447 172.239 8.92614 171.932C8.72159 171.625 8.47159 171.367 8.17614 171.159C7.88447 170.947 7.56061 170.788 7.20455 170.682C6.84849 170.576 6.47727 170.523 6.09091 170.523C5.38636 170.523 4.74811 170.701 4.17614 171.057C3.60795 171.413 3.1553 171.938 2.81818 172.631C2.48485 173.324 2.31818 174.174 2.31818 175.182C2.31818 176.189 2.48485 177.04 2.81818 177.733C3.1553 178.426 3.60795 178.951 4.17614 179.307C4.74811 179.663 5.38636 179.841 6.09091 179.841C6.47727 179.841 6.84849 179.788 7.20455 179.682C7.56061 179.576 7.88447 179.419 8.17614 179.21C8.47159 178.998 8.72159 178.739 8.92614 178.432C9.13447 178.121 9.2803 177.765 9.36364 177.364H10.7727C10.6667 177.958 10.4735 178.491 10.1932 178.96C9.91288 179.43 9.56439 179.83 9.14773 180.159C8.73106 180.485 8.26326 180.733 7.74432 180.903C7.22917 181.074 6.67803 181.159 6.09091 181.159C5.09849 181.159 4.21591 180.917 3.44318 180.432C2.67045 179.947 2.0625 179.258 1.61932 178.364C1.17614 177.47 0.954545 176.409 0.954545 175.182C0.954545 173.955 1.17614 172.894 1.61932 172C2.0625 171.106 2.67045 170.417 3.44318 169.932C4.21591 169.447 5.09849 169.205 6.09091 169.205C6.67803 169.205 7.22917 169.29 7.74432 169.46C8.26326 169.631 8.73106 169.881 9.14773 170.21C9.56439 170.536 9.91288 170.934 10.1932 171.403C10.4735 171.869 10.6667 172.402 10.7727 173ZM16.4134 181.182C15.6255 181.182 14.9342 180.994 14.3395 180.619C13.7486 180.244 13.2865 179.72 12.9531 179.045C12.6236 178.371 12.4588 177.583 12.4588 176.682C12.4588 175.773 12.6236 174.979 12.9531 174.301C13.2865 173.623 13.7486 173.097 14.3395 172.722C14.9342 172.347 15.6255 172.159 16.4134 172.159C17.2012 172.159 17.8906 172.347 18.4815 172.722C19.0762 173.097 19.5384 173.623 19.8679 174.301C20.2012 174.979 20.3679 175.773 20.3679 176.682C20.3679 177.583 20.2012 178.371 19.8679 179.045C19.5384 179.72 19.0762 180.244 18.4815 180.619C17.8906 180.994 17.2012 181.182 16.4134 181.182ZM16.4134 179.977C17.0118 179.977 17.5043 179.824 17.8906 179.517C18.277 179.21 18.563 178.807 18.7486 178.307C18.9342 177.807 19.027 177.265 19.027 176.682C19.027 176.098 18.9342 175.555 18.7486 175.051C18.563 174.547 18.277 174.14 17.8906 173.83C17.5043 173.519 17.0118 173.364 16.4134 173.364C15.8149 173.364 15.3224 173.519 14.9361 173.83C14.5497 174.14 14.2637 174.547 14.0781 175.051C13.8925 175.555 13.7997 176.098 13.7997 176.682C13.7997 177.265 13.8925 177.807 14.0781 178.307C14.2637 178.807 14.5497 179.21 14.9361 179.517C15.3224 179.824 15.8149 179.977 16.4134 179.977ZM25.7102 181.182C24.983 181.182 24.3409 180.998 23.7841 180.631C23.2273 180.259 22.7917 179.737 22.4773 179.062C22.1629 178.384 22.0057 177.583 22.0057 176.659C22.0057 175.742 22.1629 174.947 22.4773 174.273C22.7917 173.598 23.2292 173.078 23.7898 172.71C24.3504 172.343 24.9981 172.159 25.733 172.159C26.3011 172.159 26.75 172.254 27.0795 172.443C27.4129 172.629 27.6667 172.841 27.8409 173.08C28.0189 173.314 28.1572 173.508 28.2557 173.659H28.3693V169.364H29.7102V181H28.4148V179.659H28.2557C28.1572 179.818 28.017 180.019 27.8352 180.261C27.6534 180.5 27.3939 180.714 27.0568 180.903C26.7197 181.089 26.2708 181.182 25.7102 181.182ZM25.892 179.977C26.4299 179.977 26.8845 179.837 27.2557 179.557C27.6269 179.273 27.9091 178.881 28.1023 178.381C28.2955 177.877 28.392 177.295 28.392 176.636C28.392 175.985 28.2973 175.415 28.108 174.926C27.9186 174.434 27.6383 174.051 27.267 173.778C26.8958 173.502 26.4375 173.364 25.892 173.364C25.3239 173.364 24.8504 173.509 24.4716 173.801C24.0966 174.089 23.8144 174.481 23.625 174.977C23.4394 175.47 23.3466 176.023 23.3466 176.636C23.3466 177.258 23.4413 177.822 23.6307 178.33C23.8239 178.833 24.108 179.235 24.483 179.534C24.8617 179.83 25.3314 179.977 25.892 179.977ZM32.3523 181V172.273H33.6932V181H32.3523ZM33.0341 170.818C32.7727 170.818 32.5473 170.729 32.358 170.551C32.1723 170.373 32.0795 170.159 32.0795 169.909C32.0795 169.659 32.1723 169.445 32.358 169.267C32.5473 169.089 32.7727 169 33.0341 169C33.2955 169 33.5189 169.089 33.7045 169.267C33.8939 169.445 33.9886 169.659 33.9886 169.909C33.9886 170.159 33.8939 170.373 33.7045 170.551C33.5189 170.729 33.2955 170.818 33.0341 170.818ZM37.4901 175.75V181H36.1491V172.273H37.4446V173.636H37.5582C37.7628 173.193 38.0734 172.837 38.4901 172.568C38.9067 172.295 39.4446 172.159 40.1037 172.159C40.6946 172.159 41.2116 172.28 41.6548 172.523C42.098 172.761 42.4427 173.125 42.6889 173.614C42.9351 174.098 43.0582 174.712 43.0582 175.455V181H41.7173V175.545C41.7173 174.86 41.5393 174.326 41.1832 173.943C40.8272 173.557 40.3385 173.364 39.7173 173.364C39.2893 173.364 38.9067 173.456 38.5696 173.642C38.2363 173.828 37.973 174.098 37.7798 174.455C37.5866 174.811 37.4901 175.242 37.4901 175.75ZM49.0312 184.455C48.3835 184.455 47.8267 184.371 47.3608 184.205C46.8949 184.042 46.5066 183.826 46.196 183.557C45.8892 183.292 45.6449 183.008 45.4631 182.705L46.5312 181.955C46.6525 182.114 46.8059 182.295 46.9915 182.5C47.1771 182.708 47.4309 182.888 47.7528 183.04C48.0786 183.195 48.5047 183.273 49.0312 183.273C49.7358 183.273 50.3172 183.102 50.7756 182.761C51.2339 182.42 51.4631 181.886 51.4631 181.159V179.386H51.3494C51.2509 179.545 51.1108 179.742 50.929 179.977C50.7509 180.208 50.4934 180.415 50.1562 180.597C49.8229 180.775 49.3722 180.864 48.804 180.864C48.0994 180.864 47.4669 180.697 46.9062 180.364C46.3494 180.03 45.9081 179.545 45.5824 178.909C45.2604 178.273 45.0994 177.5 45.0994 176.591C45.0994 175.697 45.2566 174.919 45.571 174.256C45.8854 173.589 46.3229 173.074 46.8835 172.71C47.4441 172.343 48.0919 172.159 48.8267 172.159C49.3949 172.159 49.8456 172.254 50.179 172.443C50.5161 172.629 50.7737 172.841 50.9517 173.08C51.1335 173.314 51.2737 173.508 51.3722 173.659H51.5085V172.273H52.804V181.25C52.804 182 52.6335 182.61 52.2926 183.08C51.9555 183.553 51.5009 183.9 50.929 184.119C50.3608 184.343 49.7282 184.455 49.0312 184.455ZM48.9858 179.659C49.5237 179.659 49.9782 179.536 50.3494 179.29C50.7206 179.044 51.0028 178.689 51.196 178.227C51.3892 177.765 51.4858 177.212 51.4858 176.568C51.4858 175.939 51.3911 175.384 51.2017 174.903C51.0123 174.422 50.732 174.045 50.3608 173.773C49.9896 173.5 49.5313 173.364 48.9858 173.364C48.4176 173.364 47.9441 173.508 47.5653 173.795C47.1903 174.083 46.9081 174.47 46.7188 174.955C46.5331 175.439 46.4403 175.977 46.4403 176.568C46.4403 177.174 46.535 177.71 46.7244 178.176C46.9176 178.638 47.2017 179.002 47.5767 179.267C47.9555 179.528 48.4252 179.659 48.9858 179.659Z" fill="white"/>
<path d="M369.793 181.159C369.043 181.159 368.374 181.03 367.787 180.773C367.204 180.515 366.74 180.157 366.395 179.699C366.054 179.237 365.868 178.701 365.838 178.091H367.27C367.3 178.466 367.429 178.79 367.656 179.062C367.884 179.331 368.181 179.54 368.548 179.688C368.916 179.835 369.323 179.909 369.77 179.909C370.27 179.909 370.713 179.822 371.099 179.648C371.486 179.473 371.789 179.231 372.009 178.92C372.228 178.61 372.338 178.25 372.338 177.841C372.338 177.413 372.232 177.036 372.02 176.71C371.808 176.381 371.497 176.123 371.088 175.938C370.679 175.752 370.179 175.659 369.588 175.659H368.656V174.409H369.588C370.05 174.409 370.455 174.326 370.804 174.159C371.156 173.992 371.431 173.758 371.628 173.455C371.829 173.152 371.929 172.795 371.929 172.386C371.929 171.992 371.842 171.65 371.668 171.358C371.493 171.066 371.247 170.839 370.929 170.676C370.615 170.513 370.243 170.432 369.815 170.432C369.414 170.432 369.035 170.506 368.679 170.653C368.327 170.797 368.039 171.008 367.815 171.284C367.592 171.557 367.471 171.886 367.452 172.273H366.088C366.111 171.663 366.295 171.129 366.639 170.67C366.984 170.208 367.435 169.848 367.991 169.591C368.552 169.333 369.168 169.205 369.838 169.205C370.558 169.205 371.175 169.35 371.69 169.642C372.205 169.93 372.601 170.311 372.878 170.784C373.154 171.258 373.293 171.769 373.293 172.318C373.293 172.973 373.12 173.532 372.776 173.994C372.435 174.456 371.971 174.777 371.384 174.955V175.045C372.118 175.167 372.692 175.479 373.105 175.983C373.518 176.483 373.724 177.102 373.724 177.841C373.724 178.473 373.552 179.042 373.207 179.545C372.866 180.045 372.401 180.439 371.81 180.727C371.219 181.015 370.546 181.159 369.793 181.159ZM379.844 181H376.253V169.364H380.003C381.132 169.364 382.098 169.597 382.901 170.062C383.704 170.525 384.319 171.189 384.747 172.057C385.175 172.92 385.389 173.955 385.389 175.159C385.389 176.371 385.173 177.415 384.741 178.29C384.31 179.161 383.681 179.831 382.855 180.301C382.029 180.767 381.026 181 379.844 181ZM377.662 179.75H379.753C380.715 179.75 381.512 179.564 382.145 179.193C382.777 178.822 383.249 178.294 383.56 177.608C383.87 176.922 384.026 176.106 384.026 175.159C384.026 174.22 383.872 173.411 383.565 172.733C383.259 172.051 382.8 171.528 382.19 171.165C381.58 170.797 380.821 170.614 379.912 170.614H377.662V179.75Z" fill="white"/>
<path d="M188.364 337C188.239 336.617 188.074 336.275 187.869 335.972C187.669 335.665 187.428 335.403 187.148 335.188C186.871 334.972 186.557 334.807 186.205 334.693C185.852 334.58 185.466 334.523 185.045 334.523C184.356 334.523 183.729 334.701 183.165 335.057C182.6 335.413 182.152 335.938 181.818 336.631C181.485 337.324 181.318 338.174 181.318 339.182C181.318 340.189 181.487 341.04 181.824 341.733C182.161 342.426 182.617 342.951 183.193 343.307C183.769 343.663 184.417 343.841 185.136 343.841C185.803 343.841 186.39 343.699 186.898 343.415C187.409 343.127 187.807 342.722 188.091 342.199C188.379 341.672 188.523 341.053 188.523 340.341L188.955 340.432H185.455V339.182H189.886V340.432C189.886 341.39 189.682 342.223 189.273 342.932C188.867 343.64 188.307 344.189 187.591 344.58C186.879 344.966 186.061 345.159 185.136 345.159C184.106 345.159 183.201 344.917 182.42 344.432C181.644 343.947 181.038 343.258 180.602 342.364C180.17 341.47 179.955 340.409 179.955 339.182C179.955 338.261 180.078 337.434 180.324 336.699C180.574 335.96 180.926 335.331 181.381 334.812C181.835 334.294 182.373 333.896 182.994 333.619C183.616 333.343 184.299 333.205 185.045 333.205C185.659 333.205 186.231 333.297 186.761 333.483C187.295 333.665 187.771 333.924 188.188 334.261C188.608 334.595 188.958 334.994 189.239 335.46C189.519 335.922 189.712 336.436 189.818 337H188.364ZM194.686 345.205C194.133 345.205 193.631 345.1 193.18 344.892C192.73 344.68 192.372 344.375 192.107 343.977C191.841 343.576 191.709 343.091 191.709 342.523C191.709 342.023 191.807 341.617 192.004 341.307C192.201 340.992 192.464 340.746 192.794 340.568C193.124 340.39 193.487 340.258 193.885 340.17C194.286 340.08 194.69 340.008 195.095 339.955C195.625 339.886 196.055 339.835 196.385 339.801C196.718 339.763 196.961 339.701 197.112 339.614C197.268 339.527 197.345 339.375 197.345 339.159V339.114C197.345 338.553 197.192 338.117 196.885 337.807C196.582 337.496 196.122 337.341 195.504 337.341C194.864 337.341 194.362 337.481 193.999 337.761C193.635 338.042 193.379 338.341 193.232 338.659L191.959 338.205C192.186 337.674 192.489 337.261 192.868 336.966C193.25 336.667 193.667 336.458 194.118 336.341C194.572 336.22 195.019 336.159 195.459 336.159C195.739 336.159 196.061 336.193 196.425 336.261C196.792 336.326 197.146 336.46 197.487 336.665C197.832 336.869 198.118 337.178 198.345 337.591C198.572 338.004 198.686 338.557 198.686 339.25V345H197.345V343.818H197.277C197.186 344.008 197.035 344.21 196.822 344.426C196.61 344.642 196.328 344.826 195.976 344.977C195.624 345.129 195.194 345.205 194.686 345.205ZM194.891 344C195.421 344 195.868 343.896 196.232 343.688C196.599 343.479 196.875 343.21 197.061 342.881C197.25 342.551 197.345 342.205 197.345 341.841V340.614C197.288 340.682 197.163 340.744 196.97 340.801C196.781 340.854 196.561 340.902 196.311 340.943C196.065 340.981 195.824 341.015 195.589 341.045C195.358 341.072 195.171 341.095 195.027 341.114C194.679 341.159 194.353 341.233 194.05 341.335C193.75 341.434 193.508 341.583 193.322 341.784C193.141 341.981 193.05 342.25 193.05 342.591C193.05 343.057 193.222 343.409 193.567 343.648C193.915 343.883 194.357 344 194.891 344ZM201.134 345V336.273H202.429V337.636H202.543C202.724 337.17 203.018 336.809 203.423 336.551C203.829 336.29 204.315 336.159 204.884 336.159C205.459 336.159 205.938 336.29 206.321 336.551C206.707 336.809 207.009 337.17 207.224 337.636H207.315C207.539 337.186 207.874 336.828 208.321 336.562C208.768 336.294 209.304 336.159 209.929 336.159C210.709 336.159 211.348 336.403 211.844 336.892C212.34 337.377 212.588 338.133 212.588 339.159V345H211.247V339.159C211.247 338.515 211.071 338.055 210.719 337.778C210.366 337.502 209.952 337.364 209.474 337.364C208.861 337.364 208.385 337.549 208.048 337.92C207.711 338.288 207.543 338.754 207.543 339.318V345H206.179V339.023C206.179 338.527 206.018 338.127 205.696 337.824C205.374 337.517 204.959 337.364 204.452 337.364C204.103 337.364 203.777 337.456 203.474 337.642C203.175 337.828 202.933 338.085 202.747 338.415C202.565 338.741 202.474 339.117 202.474 339.545V345H201.134ZM215.04 345V336.273H216.381V345H215.04ZM215.722 334.818C215.46 334.818 215.235 334.729 215.045 334.551C214.86 334.373 214.767 334.159 214.767 333.909C214.767 333.659 214.86 333.445 215.045 333.267C215.235 333.089 215.46 333 215.722 333C215.983 333 216.206 333.089 216.392 333.267C216.581 333.445 216.676 333.659 216.676 333.909C216.676 334.159 216.581 334.373 216.392 334.551C216.206 334.729 215.983 334.818 215.722 334.818ZM220.178 339.75V345H218.837V336.273H220.132V337.636H220.246C220.45 337.193 220.761 336.837 221.178 336.568C221.594 336.295 222.132 336.159 222.791 336.159C223.382 336.159 223.899 336.28 224.342 336.523C224.786 336.761 225.13 337.125 225.376 337.614C225.623 338.098 225.746 338.712 225.746 339.455V345H224.405V339.545C224.405 338.86 224.227 338.326 223.871 337.943C223.515 337.557 223.026 337.364 222.405 337.364C221.977 337.364 221.594 337.456 221.257 337.642C220.924 337.828 220.661 338.098 220.467 338.455C220.274 338.811 220.178 339.242 220.178 339.75ZM231.719 348.455C231.071 348.455 230.514 348.371 230.048 348.205C229.582 348.042 229.194 347.826 228.884 347.557C228.577 347.292 228.332 347.008 228.151 346.705L229.219 345.955C229.34 346.114 229.493 346.295 229.679 346.5C229.865 346.708 230.118 346.888 230.44 347.04C230.766 347.195 231.192 347.273 231.719 347.273C232.423 347.273 233.005 347.102 233.463 346.761C233.921 346.42 234.151 345.886 234.151 345.159V343.386H234.037C233.938 343.545 233.798 343.742 233.616 343.977C233.438 344.208 233.181 344.415 232.844 344.597C232.51 344.775 232.06 344.864 231.491 344.864C230.787 344.864 230.154 344.697 229.594 344.364C229.037 344.03 228.596 343.545 228.27 342.909C227.948 342.273 227.787 341.5 227.787 340.591C227.787 339.697 227.944 338.919 228.259 338.256C228.573 337.589 229.01 337.074 229.571 336.71C230.132 336.343 230.779 336.159 231.514 336.159C232.082 336.159 232.533 336.254 232.866 336.443C233.204 336.629 233.461 336.841 233.639 337.08C233.821 337.314 233.961 337.508 234.06 337.659H234.196V336.273H235.491V345.25C235.491 346 235.321 346.61 234.98 347.08C234.643 347.553 234.188 347.9 233.616 348.119C233.048 348.343 232.416 348.455 231.719 348.455ZM231.673 343.659C232.211 343.659 232.666 343.536 233.037 343.29C233.408 343.044 233.69 342.689 233.884 342.227C234.077 341.765 234.173 341.212 234.173 340.568C234.173 339.939 234.079 339.384 233.889 338.903C233.7 338.422 233.42 338.045 233.048 337.773C232.677 337.5 232.219 337.364 231.673 337.364C231.105 337.364 230.632 337.508 230.253 337.795C229.878 338.083 229.596 338.47 229.406 338.955C229.221 339.439 229.128 339.977 229.128 340.568C229.128 341.174 229.223 341.71 229.412 342.176C229.605 342.638 229.889 343.002 230.264 343.267C230.643 343.528 231.113 343.659 231.673 343.659Z" fill="white"/>
<defs>
<filter id="filter0_d_97_385" x="174.5" y="24.5" width="39" height="39" filterUnits="userSpaceOnUse" color-interpolation-filters="sRGB">
<feFlood flood-opacity="0" result="BackgroundImageFix"/>
<feColorMatrix in="SourceAlpha" type="matrix" values="0 0 0 0 0 0 0 0 0 0 0 0 0 0 0 0 0 0 127 0" result="hardAlpha"/>
<feOffset dy="4"/>
<feGaussianBlur stdDeviation="2"/>
<feComposite in2="hardAlpha" operator="out"/>
<feColorMatrix type="matrix" values="0 0 0 0 0 0 0 0 0 0 0 0 0 0 0 0 0 0 0.25 0"/>
<feBlend mode="normal" in2="BackgroundImageFix" result="effect1_dropShadow_97_385"/>
<feBlend mode="normal" in="SourceGraphic" in2="effect1_dropShadow_97_385" result="shape"/>
</filter>
<filter id="filter1_d_97_385" x="204.5" y="24.5" width="39" height="39" filterUnits="userSpaceOnUse" color-interpolation-filters="sRGB">
<feFlood flood-opacity="0" result="BackgroundImageFix"/>
<feColorMatrix in="SourceAlpha" type="matrix" values="0 0 0 0 0 0 0 0 0 0 0 0 0 0 0 0 0 0 127 0" result="hardAlpha"/>
<feOffset dy="4"/>
<feGaussianBlur stdDeviation="2"/>
<feComposite in2="hardAlpha" operator="out"/>
<feColorMatrix type="matrix" values="0 0 0 0 0 0 0 0 0 0 0 0 0 0 0 0 0 0 0.25 0"/>
<feBlend mode="normal" in2="BackgroundImageFix" result="effect1_dropShadow_97_385"/>
<feBlend mode="normal" in="SourceGraphic" in2="effect1_dropShadow_97_385" result="shape"/>
</filter>
</defs>
</svg>
