<svg width="24" height="24" viewBox="0 0 24 24" fill="none" xmlns="http://www.w3.org/2000/svg">
<g clip-path="url(#clip0_147_24)">
<path d="M7.452 12L5.856 13.068V10.932L7.452 12ZM11.364 9.384V6.408L6.372 9.744L8.592 11.232L11.364 9.384ZM17.64 9.744L12.636 6.408V9.384L15.408 11.232L17.64 9.744ZM6.372 14.256L11.364 17.592V14.616L8.592 12.768L6.372 14.256ZM12.636 14.616V17.592L17.64 14.256L15.408 12.768L12.636 14.616ZM12 10.488L9.744 12L12 13.512L14.256 12L12 10.488ZM24 12C24 18.6 18.6 24 12 24C5.4 24 0 18.6 0 12C0 5.4 5.4 0 12 0C18.6 0 24 5.4 24 12ZM19.416 9.744V9.66L19.404 9.6L19.392 9.54C19.38 9.528 19.38 9.516 19.368 9.492L19.356 9.468L19.332 9.42L19.32 9.396L19.296 9.36L19.272 9.324L19.236 9.288L19.2 9.264V9.24L19.152 9.216L19.14 9.204L12.36 4.692C12.2554 4.62153 12.1321 4.58388 12.006 4.58388C11.8799 4.58388 11.7566 4.62153 11.652 4.692L4.86 9.204V9.216L4.8 9.24V9.264L4.764 9.288L4.728 9.324L4.716 9.36L4.68 9.396L4.668 9.42L4.644 9.468L4.632 9.492L4.608 9.54V9.6H4.596L4.584 9.66V14.34L4.596 14.4H4.608V14.46C4.62 14.472 4.62 14.484 4.632 14.508L4.644 14.532L4.668 14.58L4.68 14.604L4.704 14.64L4.728 14.676L4.764 14.712L4.8 14.736V14.76L4.848 14.784L4.86 14.796L11.652 19.32C11.748 19.392 11.88 19.416 12 19.416C12.12 19.416 12.252 19.38 12.36 19.32L19.14 14.796L19.152 14.784L19.2 14.76V14.736L19.236 14.712L19.272 14.676L19.296 14.64L19.32 14.604L19.332 14.58L19.356 14.532L19.368 14.508L19.392 14.46V14.4H19.404L19.416 14.34V9.744ZM18.144 13.068V10.932L16.548 12L18.144 13.068Z" fill="#F8F8F8"/>
</g>
<defs>
<clipPath id="clip0_147_24">
<rect width="24" height="24" fill="white"/>
</clipPath>
</defs>
</svg>
