<svg width="565" height="322" viewBox="0 0 565 322" fill="none" xmlns="http://www.w3.org/2000/svg">
<path d="M0.568182 66.392V64.3636H10.125V66.392H6.5625V76H4.13068V66.392H0.568182ZM14.0739 70.9545V76H11.6534V64.3636H14.0057V68.8125H14.108C14.3049 68.2973 14.6231 67.8939 15.0625 67.6023C15.5019 67.3068 16.053 67.1591 16.7159 67.1591C17.322 67.1591 17.8504 67.2917 18.3011 67.5568C18.7557 67.8182 19.108 68.1951 19.358 68.6875C19.6117 69.1761 19.7367 69.7614 19.733 70.4432V76H17.3125V70.875C17.3163 70.3371 17.1799 69.9186 16.9034 69.6193C16.6307 69.3201 16.2481 69.1705 15.7557 69.1705C15.4261 69.1705 15.1345 69.2405 14.8807 69.3807C14.6307 69.5208 14.4337 69.7254 14.2898 69.9943C14.1496 70.2595 14.0777 70.5795 14.0739 70.9545ZM21.6378 76V67.2727H24.0582V76H21.6378ZM22.8537 66.1477C22.4938 66.1477 22.1851 66.0284 21.9276 65.7898C21.6738 65.5473 21.5469 65.2576 21.5469 64.9205C21.5469 64.5871 21.6738 64.3011 21.9276 64.0625C22.1851 63.8201 22.4938 63.6989 22.8537 63.6989C23.2135 63.6989 23.5204 63.8201 23.7741 64.0625C24.0317 64.3011 24.1605 64.5871 24.1605 64.9205C24.1605 65.2576 24.0317 65.5473 23.7741 65.7898C23.5204 66.0284 23.2135 66.1477 22.8537 66.1477ZM28.4176 70.9545V76H25.9972V67.2727H28.304V68.8125H28.4062C28.5994 68.3049 28.9233 67.9034 29.3778 67.608C29.8324 67.3087 30.3835 67.1591 31.0312 67.1591C31.6373 67.1591 32.1657 67.2917 32.6165 67.5568C33.0672 67.822 33.4176 68.2008 33.6676 68.6932C33.9176 69.1818 34.0426 69.7652 34.0426 70.4432V76H31.6222V70.875C31.6259 70.3409 31.4896 69.9242 31.2131 69.625C30.9366 69.322 30.5559 69.1705 30.071 69.1705C29.7453 69.1705 29.4574 69.2405 29.2074 69.3807C28.9612 69.5208 28.768 69.7254 28.6278 69.9943C28.4915 70.2595 28.4214 70.5795 28.4176 70.9545ZM38.1435 73.4886L38.1491 70.5852H38.5014L41.2969 67.2727H44.0753L40.3196 71.6591H39.7457L38.1435 73.4886ZM35.9503 76V64.3636H38.3707V76H35.9503ZM41.4048 76L38.8366 72.1989L40.4503 70.4886L44.2401 76H41.4048ZM45.2628 76V67.2727H47.6832V76H45.2628ZM46.4787 66.1477C46.1188 66.1477 45.8101 66.0284 45.5526 65.7898C45.2988 65.5473 45.1719 65.2576 45.1719 64.9205C45.1719 64.5871 45.2988 64.3011 45.5526 64.0625C45.8101 63.8201 46.1188 63.6989 46.4787 63.6989C46.8385 63.6989 47.1454 63.8201 47.3991 64.0625C47.6567 64.3011 47.7855 64.5871 47.7855 64.9205C47.7855 65.2576 47.6567 65.5473 47.3991 65.7898C47.1454 66.0284 46.8385 66.1477 46.4787 66.1477ZM52.0426 70.9545V76H49.6222V67.2727H51.929V68.8125H52.0312C52.2244 68.3049 52.5483 67.9034 53.0028 67.608C53.4574 67.3087 54.0085 67.1591 54.6562 67.1591C55.2623 67.1591 55.7907 67.2917 56.2415 67.5568C56.6922 67.822 57.0426 68.2008 57.2926 68.6932C57.5426 69.1818 57.6676 69.7652 57.6676 70.4432V76H55.2472V70.875C55.2509 70.3409 55.1146 69.9242 54.8381 69.625C54.5616 69.322 54.1809 69.1705 53.696 69.1705C53.3703 69.1705 53.0824 69.2405 52.8324 69.3807C52.5862 69.5208 52.393 69.7254 52.2528 69.9943C52.1165 70.2595 52.0464 70.5795 52.0426 70.9545ZM63.5071 79.4545C62.723 79.4545 62.0507 79.3466 61.4901 79.1307C60.9332 78.9186 60.4901 78.6288 60.1605 78.2614C59.831 77.8939 59.617 77.4811 59.5185 77.0227L61.7571 76.7216C61.8253 76.8958 61.9332 77.0587 62.081 77.2102C62.2287 77.3617 62.4238 77.483 62.6662 77.5739C62.9124 77.6686 63.2116 77.7159 63.5639 77.7159C64.0904 77.7159 64.5241 77.5871 64.8651 77.3295C65.2098 77.0758 65.3821 76.6496 65.3821 76.0511V74.4545H65.2798C65.1738 74.697 65.0147 74.9261 64.8026 75.142C64.5904 75.358 64.3177 75.5341 63.9844 75.6705C63.651 75.8068 63.2533 75.875 62.7912 75.875C62.1359 75.875 61.5393 75.7235 61.0014 75.4205C60.4673 75.1136 60.0412 74.6458 59.723 74.017C59.4086 73.3845 59.2514 72.5852 59.2514 71.6193C59.2514 70.6307 59.4124 69.8049 59.7344 69.142C60.0563 68.4792 60.4844 67.983 61.0185 67.6534C61.5563 67.3239 62.1454 67.1591 62.7855 67.1591C63.2741 67.1591 63.6832 67.2424 64.0128 67.4091C64.3423 67.572 64.6075 67.7765 64.8082 68.0227C65.0128 68.2652 65.17 68.5038 65.2798 68.7386H65.3707V67.2727H67.7741V76.0852C67.7741 76.8277 67.5923 77.4489 67.2287 77.9489C66.8651 78.4489 66.3613 78.8239 65.7173 79.0739C65.0772 79.3277 64.3404 79.4545 63.5071 79.4545ZM63.5582 74.0568C63.9484 74.0568 64.2779 73.9602 64.5469 73.767C64.8196 73.5701 65.0279 73.2898 65.1719 72.9261C65.3196 72.5587 65.3935 72.1193 65.3935 71.608C65.3935 71.0966 65.3215 70.6534 65.1776 70.2784C65.0336 69.8996 64.8253 69.6061 64.5526 69.3977C64.2798 69.1894 63.9484 69.0852 63.5582 69.0852C63.1605 69.0852 62.8253 69.1932 62.5526 69.4091C62.2798 69.6212 62.0734 69.9167 61.9332 70.2955C61.7931 70.6742 61.723 71.1117 61.723 71.608C61.723 72.1117 61.7931 72.5473 61.9332 72.9148C62.0772 73.2784 62.2836 73.5606 62.5526 73.7614C62.8253 73.9583 63.1605 74.0568 63.5582 74.0568Z" fill="white"/>
<path d="M1.01136 219V207.364H8.71591V209.392H3.47159V212.165H8.20455V214.193H3.47159V219H1.01136ZM13.6619 219.17C12.7642 219.17 11.9915 218.989 11.3438 218.625C10.6998 218.258 10.2036 217.739 9.85511 217.068C9.50663 216.394 9.33239 215.597 9.33239 214.676C9.33239 213.778 9.50663 212.991 9.85511 212.312C10.2036 211.634 10.6941 211.106 11.3267 210.727C11.9631 210.348 12.7093 210.159 13.5653 210.159C14.1411 210.159 14.6771 210.252 15.1733 210.438C15.6733 210.619 16.1089 210.894 16.4801 211.261C16.8551 211.629 17.1468 212.091 17.3551 212.648C17.5634 213.201 17.6676 213.848 17.6676 214.591V215.256H10.2983V213.756H15.3892C15.3892 213.407 15.3134 213.098 15.1619 212.83C15.0104 212.561 14.8002 212.35 14.5312 212.199C14.2661 212.044 13.9574 211.966 13.6051 211.966C13.2377 211.966 12.9119 212.051 12.6278 212.222C12.3475 212.388 12.1278 212.614 11.9688 212.898C11.8097 213.178 11.7282 213.491 11.7244 213.835V215.261C11.7244 215.693 11.804 216.066 11.9631 216.381C12.1259 216.695 12.3551 216.938 12.6506 217.108C12.946 217.278 13.2964 217.364 13.7017 217.364C13.9706 217.364 14.2169 217.326 14.4403 217.25C14.6638 217.174 14.8551 217.061 15.0142 216.909C15.1733 216.758 15.2945 216.572 15.3778 216.352L17.6165 216.5C17.5028 217.038 17.2699 217.508 16.9176 217.909C16.5691 218.307 16.1184 218.617 15.5653 218.841C15.0161 219.061 14.3816 219.17 13.6619 219.17ZM23.2244 219.17C22.3267 219.17 21.554 218.989 20.9062 218.625C20.2623 218.258 19.7661 217.739 19.4176 217.068C19.0691 216.394 18.8949 215.597 18.8949 214.676C18.8949 213.778 19.0691 212.991 19.4176 212.312C19.7661 211.634 20.2566 211.106 20.8892 210.727C21.5256 210.348 22.2718 210.159 23.1278 210.159C23.7036 210.159 24.2396 210.252 24.7358 210.438C25.2358 210.619 25.6714 210.894 26.0426 211.261C26.4176 211.629 26.7093 212.091 26.9176 212.648C27.1259 213.201 27.2301 213.848 27.2301 214.591V215.256H19.8608V213.756H24.9517C24.9517 213.407 24.8759 213.098 24.7244 212.83C24.5729 212.561 24.3627 212.35 24.0938 212.199C23.8286 212.044 23.5199 211.966 23.1676 211.966C22.8002 211.966 22.4744 212.051 22.1903 212.222C21.91 212.388 21.6903 212.614 21.5312 212.898C21.3722 213.178 21.2907 213.491 21.2869 213.835V215.261C21.2869 215.693 21.3665 216.066 21.5256 216.381C21.6884 216.695 21.9176 216.938 22.2131 217.108C22.5085 217.278 22.8589 217.364 23.2642 217.364C23.5331 217.364 23.7794 217.326 24.0028 217.25C24.2263 217.174 24.4176 217.061 24.5767 216.909C24.7358 216.758 24.857 216.572 24.9403 216.352L27.179 216.5C27.0653 217.038 26.8324 217.508 26.4801 217.909C26.1316 218.307 25.6809 218.617 25.1278 218.841C24.5786 219.061 23.9441 219.17 23.2244 219.17ZM31.2301 207.364V219H28.8097V207.364H31.2301ZM33.169 219V210.273H35.5895V219H33.169ZM34.3849 209.148C34.0251 209.148 33.7164 209.028 33.4588 208.79C33.205 208.547 33.0781 208.258 33.0781 207.92C33.0781 207.587 33.205 207.301 33.4588 207.062C33.7164 206.82 34.0251 206.699 34.3849 206.699C34.7448 206.699 35.0516 206.82 35.3054 207.062C35.563 207.301 35.6918 207.587 35.6918 207.92C35.6918 208.258 35.563 208.547 35.3054 208.79C35.0516 209.028 34.7448 209.148 34.3849 209.148ZM39.9489 213.955V219H37.5284V210.273H39.8352V211.812H39.9375C40.1307 211.305 40.4545 210.903 40.9091 210.608C41.3636 210.309 41.9148 210.159 42.5625 210.159C43.1686 210.159 43.697 210.292 44.1477 210.557C44.5985 210.822 44.9489 211.201 45.1989 211.693C45.4489 212.182 45.5739 212.765 45.5739 213.443V219H43.1534V213.875C43.1572 213.341 43.0208 212.924 42.7443 212.625C42.4678 212.322 42.0871 212.17 41.6023 212.17C41.2765 212.17 40.9886 212.241 40.7386 212.381C40.4924 212.521 40.2992 212.725 40.1591 212.994C40.0227 213.259 39.9527 213.58 39.9489 213.955ZM51.4134 222.455C50.6293 222.455 49.9569 222.347 49.3963 222.131C48.8395 221.919 48.3963 221.629 48.0668 221.261C47.7372 220.894 47.5232 220.481 47.4247 220.023L49.6634 219.722C49.7315 219.896 49.8395 220.059 49.9872 220.21C50.1349 220.362 50.33 220.483 50.5724 220.574C50.8187 220.669 51.1179 220.716 51.4702 220.716C51.9967 220.716 52.4304 220.587 52.7713 220.33C53.116 220.076 53.2884 219.65 53.2884 219.051V217.455H53.1861C53.08 217.697 52.9209 217.926 52.7088 218.142C52.4967 218.358 52.224 218.534 51.8906 218.67C51.5573 218.807 51.1596 218.875 50.6974 218.875C50.0421 218.875 49.4455 218.723 48.9077 218.42C48.3736 218.114 47.9474 217.646 47.6293 217.017C47.3149 216.384 47.1577 215.585 47.1577 214.619C47.1577 213.631 47.3187 212.805 47.6406 212.142C47.9626 211.479 48.3906 210.983 48.9247 210.653C49.4626 210.324 50.0516 210.159 50.6918 210.159C51.1804 210.159 51.5895 210.242 51.919 210.409C52.2486 210.572 52.5137 210.777 52.7145 211.023C52.919 211.265 53.0762 211.504 53.1861 211.739H53.277V210.273H55.6804V219.085C55.6804 219.828 55.4986 220.449 55.1349 220.949C54.7713 221.449 54.2675 221.824 53.6236 222.074C52.9834 222.328 52.2467 222.455 51.4134 222.455ZM51.4645 217.057C51.8546 217.057 52.1842 216.96 52.4531 216.767C52.7259 216.57 52.9342 216.29 53.0781 215.926C53.2259 215.559 53.2997 215.119 53.2997 214.608C53.2997 214.097 53.2277 213.653 53.0838 213.278C52.9399 212.9 52.7315 212.606 52.4588 212.398C52.1861 212.189 51.8546 212.085 51.4645 212.085C51.0668 212.085 50.7315 212.193 50.4588 212.409C50.1861 212.621 49.9796 212.917 49.8395 213.295C49.6993 213.674 49.6293 214.112 49.6293 214.608C49.6293 215.112 49.6993 215.547 49.8395 215.915C49.9834 216.278 50.1899 216.561 50.4588 216.761C50.7315 216.958 51.0668 217.057 51.4645 217.057Z" fill="white"/>
<path d="M287.773 321.182C286.985 321.182 286.294 320.994 285.699 320.619C285.108 320.244 284.646 319.72 284.312 319.045C283.983 318.371 283.818 317.583 283.818 316.682C283.818 315.773 283.983 314.979 284.312 314.301C284.646 313.623 285.108 313.097 285.699 312.722C286.294 312.347 286.985 312.159 287.773 312.159C288.561 312.159 289.25 312.347 289.841 312.722C290.436 313.097 290.898 313.623 291.227 314.301C291.561 314.979 291.727 315.773 291.727 316.682C291.727 317.583 291.561 318.371 291.227 319.045C290.898 319.72 290.436 320.244 289.841 320.619C289.25 320.994 288.561 321.182 287.773 321.182ZM287.773 319.977C288.371 319.977 288.864 319.824 289.25 319.517C289.636 319.21 289.922 318.807 290.108 318.307C290.294 317.807 290.386 317.265 290.386 316.682C290.386 316.098 290.294 315.555 290.108 315.051C289.922 314.547 289.636 314.14 289.25 313.83C288.864 313.519 288.371 313.364 287.773 313.364C287.174 313.364 286.682 313.519 286.295 313.83C285.909 314.14 285.623 314.547 285.438 315.051C285.252 315.555 285.159 316.098 285.159 316.682C285.159 317.265 285.252 317.807 285.438 318.307C285.623 318.807 285.909 319.21 286.295 319.517C286.682 319.824 287.174 319.977 287.773 319.977ZM300.598 312.273L297.371 321H296.007L292.78 312.273H294.234L296.643 319.227H296.734L299.143 312.273H300.598ZM305.714 321.182C304.874 321.182 304.148 320.996 303.538 320.625C302.932 320.25 302.464 319.727 302.135 319.057C301.809 318.383 301.646 317.598 301.646 316.705C301.646 315.811 301.809 315.023 302.135 314.341C302.464 313.655 302.923 313.121 303.51 312.739C304.101 312.352 304.79 312.159 305.578 312.159C306.033 312.159 306.482 312.235 306.925 312.386C307.368 312.538 307.771 312.784 308.135 313.125C308.499 313.462 308.788 313.909 309.004 314.466C309.22 315.023 309.328 315.708 309.328 316.523V317.091H302.601V315.932H307.964C307.964 315.439 307.866 315 307.669 314.614C307.476 314.227 307.199 313.922 306.839 313.699C306.483 313.475 306.063 313.364 305.578 313.364C305.044 313.364 304.582 313.496 304.192 313.761C303.805 314.023 303.508 314.364 303.3 314.784C303.091 315.205 302.987 315.655 302.987 316.136V316.909C302.987 317.568 303.101 318.127 303.328 318.585C303.559 319.04 303.879 319.386 304.288 319.625C304.697 319.86 305.173 319.977 305.714 319.977C306.067 319.977 306.385 319.928 306.669 319.83C306.957 319.727 307.205 319.576 307.413 319.375C307.622 319.17 307.783 318.917 307.896 318.614L309.192 318.977C309.055 319.417 308.826 319.803 308.504 320.136C308.182 320.466 307.785 320.723 307.311 320.909C306.838 321.091 306.305 321.182 305.714 321.182ZM311.368 321V312.273H312.663V313.591H312.754C312.913 313.159 313.201 312.809 313.618 312.54C314.035 312.271 314.504 312.136 315.027 312.136C315.125 312.136 315.249 312.138 315.396 312.142C315.544 312.146 315.656 312.152 315.732 312.159V313.523C315.686 313.511 315.582 313.494 315.419 313.472C315.26 313.445 315.091 313.432 314.913 313.432C314.489 313.432 314.11 313.521 313.777 313.699C313.447 313.873 313.186 314.116 312.993 314.426C312.804 314.733 312.709 315.083 312.709 315.477V321H311.368ZM325.616 312.273V313.409H321.094V312.273H325.616ZM322.412 310.182H323.753V318.5C323.753 318.879 323.808 319.163 323.918 319.352C324.031 319.538 324.175 319.663 324.349 319.727C324.527 319.788 324.715 319.818 324.912 319.818C325.06 319.818 325.181 319.811 325.276 319.795C325.37 319.777 325.446 319.761 325.503 319.75L325.776 320.955C325.685 320.989 325.558 321.023 325.395 321.057C325.232 321.095 325.026 321.114 324.776 321.114C324.397 321.114 324.026 321.032 323.662 320.869C323.302 320.706 323.003 320.458 322.764 320.125C322.529 319.792 322.412 319.371 322.412 318.864V310.182ZM327.634 321V312.273H328.974V321H327.634ZM328.315 310.818C328.054 310.818 327.829 310.729 327.639 310.551C327.454 310.373 327.361 310.159 327.361 309.909C327.361 309.659 327.454 309.445 327.639 309.267C327.829 309.089 328.054 309 328.315 309C328.577 309 328.8 309.089 328.986 309.267C329.175 309.445 329.27 309.659 329.27 309.909C329.27 310.159 329.175 310.373 328.986 310.551C328.8 310.729 328.577 310.818 328.315 310.818ZM331.43 321V312.273H332.726V313.636H332.839C333.021 313.17 333.315 312.809 333.72 312.551C334.125 312.29 334.612 312.159 335.18 312.159C335.756 312.159 336.235 312.29 336.618 312.551C337.004 312.809 337.305 313.17 337.521 313.636H337.612C337.836 313.186 338.171 312.828 338.618 312.562C339.065 312.294 339.601 312.159 340.226 312.159C341.006 312.159 341.644 312.403 342.141 312.892C342.637 313.377 342.885 314.133 342.885 315.159V321H341.544V315.159C341.544 314.515 341.368 314.055 341.016 313.778C340.663 313.502 340.249 313.364 339.771 313.364C339.158 313.364 338.682 313.549 338.345 313.92C338.008 314.288 337.839 314.754 337.839 315.318V321H336.476V315.023C336.476 314.527 336.315 314.127 335.993 313.824C335.671 313.517 335.256 313.364 334.749 313.364C334.4 313.364 334.074 313.456 333.771 313.642C333.472 313.828 333.23 314.085 333.044 314.415C332.862 314.741 332.771 315.117 332.771 315.545V321H331.43ZM348.996 321.182C348.155 321.182 347.429 320.996 346.82 320.625C346.214 320.25 345.746 319.727 345.416 319.057C345.09 318.383 344.928 317.598 344.928 316.705C344.928 315.811 345.09 315.023 345.416 314.341C345.746 313.655 346.204 313.121 346.791 312.739C347.382 312.352 348.071 312.159 348.859 312.159C349.314 312.159 349.763 312.235 350.206 312.386C350.649 312.538 351.053 312.784 351.416 313.125C351.78 313.462 352.07 313.909 352.286 314.466C352.501 315.023 352.609 315.708 352.609 316.523V317.091H345.882V315.932H351.246C351.246 315.439 351.147 315 350.95 314.614C350.757 314.227 350.481 313.922 350.121 313.699C349.765 313.475 349.344 313.364 348.859 313.364C348.325 313.364 347.863 313.496 347.473 313.761C347.087 314.023 346.789 314.364 346.581 314.784C346.373 315.205 346.268 315.655 346.268 316.136V316.909C346.268 317.568 346.382 318.127 346.609 318.585C346.84 319.04 347.161 319.386 347.57 319.625C347.979 319.86 348.454 319.977 348.996 319.977C349.348 319.977 349.666 319.928 349.95 319.83C350.238 319.727 350.486 319.576 350.695 319.375C350.903 319.17 351.064 318.917 351.178 318.614L352.473 318.977C352.337 319.417 352.107 319.803 351.786 320.136C351.464 320.466 351.066 320.723 350.592 320.909C350.119 321.091 349.587 321.182 348.996 321.182Z" fill="white"/>
<path d="M1.88636 241H0.409091L4.68182 229.364H6.13636L10.4091 241H8.93182L5.45455 231.205H5.36364L1.88636 241ZM2.43182 236.455H8.38636V237.705H2.43182V236.455ZM12.0398 241V232.273H13.3352V233.591H13.4261C13.5852 233.159 13.8731 232.809 14.2898 232.54C14.7064 232.271 15.1761 232.136 15.6989 232.136C15.7973 232.136 15.9205 232.138 16.0682 232.142C16.2159 232.146 16.3277 232.152 16.4034 232.159V233.523C16.358 233.511 16.2538 233.494 16.0909 233.472C15.9318 233.445 15.7633 233.432 15.5852 233.432C15.161 233.432 14.7822 233.521 14.4489 233.699C14.1193 233.873 13.858 234.116 13.6648 234.426C13.4754 234.733 13.3807 235.083 13.3807 235.477V241H12.0398ZM22.3352 232.273V233.409H17.8125V232.273H22.3352ZM19.1307 230.182H20.4716V238.5C20.4716 238.879 20.5265 239.163 20.6364 239.352C20.75 239.538 20.8939 239.663 21.0682 239.727C21.2462 239.788 21.4337 239.818 21.6307 239.818C21.7784 239.818 21.8996 239.811 21.9943 239.795C22.089 239.777 22.1648 239.761 22.2216 239.75L22.4943 240.955C22.4034 240.989 22.2765 241.023 22.1136 241.057C21.9508 241.095 21.7443 241.114 21.4943 241.114C21.1155 241.114 20.7443 241.032 20.3807 240.869C20.0208 240.706 19.7216 240.458 19.483 240.125C19.2481 239.792 19.1307 239.371 19.1307 238.864V230.182Z" fill="white"/>
<path d="M1.40909 98V86.3636H2.81818V96.75H8.22727V98H1.40909ZM13.7727 98.1818C12.9848 98.1818 12.2936 97.9943 11.6989 97.6193C11.108 97.2443 10.6458 96.7197 10.3125 96.0455C9.98295 95.3712 9.81818 94.5833 9.81818 93.6818C9.81818 92.7727 9.98295 91.9792 10.3125 91.3011C10.6458 90.6231 11.108 90.0966 11.6989 89.7216C12.2936 89.3466 12.9848 89.1591 13.7727 89.1591C14.5606 89.1591 15.25 89.3466 15.8409 89.7216C16.4356 90.0966 16.8977 90.6231 17.2273 91.3011C17.5606 91.9792 17.7273 92.7727 17.7273 93.6818C17.7273 94.5833 17.5606 95.3712 17.2273 96.0455C16.8977 96.7197 16.4356 97.2443 15.8409 97.6193C15.25 97.9943 14.5606 98.1818 13.7727 98.1818ZM13.7727 96.9773C14.3712 96.9773 14.8636 96.8239 15.25 96.517C15.6364 96.2102 15.9223 95.8068 16.108 95.3068C16.2936 94.8068 16.3864 94.2652 16.3864 93.6818C16.3864 93.0985 16.2936 92.5549 16.108 92.0511C15.9223 91.5473 15.6364 91.1402 15.25 90.8295C14.8636 90.5189 14.3712 90.3636 13.7727 90.3636C13.1742 90.3636 12.6818 90.5189 12.2955 90.8295C11.9091 91.1402 11.6231 91.5473 11.4375 92.0511C11.2519 92.5549 11.1591 93.0985 11.1591 93.6818C11.1591 94.2652 11.2519 94.8068 11.4375 95.3068C11.6231 95.8068 11.9091 96.2102 12.2955 96.517C12.6818 96.8239 13.1742 96.9773 13.7727 96.9773ZM23.2969 101.455C22.6491 101.455 22.0923 101.371 21.6264 101.205C21.1605 101.042 20.7723 100.826 20.4616 100.557C20.1548 100.292 19.9105 100.008 19.7287 99.7045L20.7969 98.9545C20.9181 99.1136 21.0715 99.2955 21.2571 99.5C21.4427 99.7083 21.6965 99.8883 22.0185 100.04C22.3442 100.195 22.7704 100.273 23.2969 100.273C24.0014 100.273 24.5829 100.102 25.0412 99.7614C25.4995 99.4205 25.7287 98.8864 25.7287 98.1591V96.3864H25.6151C25.5166 96.5455 25.3764 96.7424 25.1946 96.9773C25.0166 97.2083 24.759 97.4148 24.4219 97.5966C24.0885 97.7746 23.6378 97.8636 23.0696 97.8636C22.3651 97.8636 21.7325 97.697 21.1719 97.3636C20.6151 97.0303 20.1738 96.5455 19.848 95.9091C19.526 95.2727 19.3651 94.5 19.3651 93.5909C19.3651 92.697 19.5223 91.9186 19.8366 91.2557C20.151 90.589 20.5885 90.0739 21.1491 89.7102C21.7098 89.3428 22.3575 89.1591 23.0923 89.1591C23.6605 89.1591 24.1113 89.2538 24.4446 89.4432C24.7817 89.6288 25.0393 89.8409 25.2173 90.0795C25.3991 90.3144 25.5393 90.5076 25.6378 90.6591H25.7741V89.2727H27.0696V98.25C27.0696 99 26.8991 99.6098 26.5582 100.08C26.2211 100.553 25.7666 100.9 25.1946 101.119C24.6264 101.343 23.9938 101.455 23.2969 101.455ZM23.2514 96.6591C23.7893 96.6591 24.2438 96.536 24.6151 96.2898C24.9863 96.0436 25.2685 95.6894 25.4616 95.2273C25.6548 94.7652 25.7514 94.2121 25.7514 93.5682C25.7514 92.9394 25.6567 92.3845 25.4673 91.9034C25.2779 91.4223 24.9976 91.0455 24.6264 90.7727C24.2552 90.5 23.7969 90.3636 23.2514 90.3636C22.6832 90.3636 22.2098 90.5076 21.831 90.7955C21.456 91.0833 21.1738 91.4697 20.9844 91.9545C20.7988 92.4394 20.706 92.9773 20.706 93.5682C20.706 94.1742 20.8007 94.7102 20.9901 95.1761C21.1832 95.6383 21.4673 96.0019 21.8423 96.267C22.2211 96.5284 22.6908 96.6591 23.2514 96.6591ZM29.5241 98V89.2727H30.8651V98H29.5241ZM30.206 87.8182C29.9446 87.8182 29.7192 87.7292 29.5298 87.5511C29.3442 87.3731 29.2514 87.1591 29.2514 86.9091C29.2514 86.6591 29.3442 86.4451 29.5298 86.267C29.7192 86.089 29.9446 86 30.206 86C30.4673 86 30.6908 86.089 30.8764 86.267C31.0658 86.4451 31.1605 86.6591 31.1605 86.9091C31.1605 87.1591 31.0658 87.3731 30.8764 87.5511C30.6908 87.7292 30.4673 87.8182 30.206 87.8182ZM36.8665 98.1818C36.0483 98.1818 35.3438 97.9886 34.7528 97.6023C34.1619 97.2159 33.7074 96.6837 33.3892 96.0057C33.071 95.3277 32.9119 94.553 32.9119 93.6818C32.9119 92.7955 33.0748 92.0133 33.4006 91.3352C33.7301 90.6534 34.1884 90.1212 34.7756 89.7386C35.3665 89.3523 36.0559 89.1591 36.8438 89.1591C37.4574 89.1591 38.0104 89.2727 38.5028 89.5C38.9953 89.7273 39.3987 90.0455 39.7131 90.4545C40.0275 90.8636 40.2225 91.3409 40.2983 91.8864H38.9574C38.8551 91.4886 38.6278 91.1364 38.2756 90.8295C37.9271 90.5189 37.4574 90.3636 36.8665 90.3636C36.3438 90.3636 35.8854 90.5 35.4915 90.7727C35.1013 91.0417 34.7964 91.4223 34.5767 91.9148C34.3608 92.4034 34.2528 92.9773 34.2528 93.6364C34.2528 94.3106 34.3589 94.8977 34.571 95.3977C34.7869 95.8977 35.09 96.286 35.4801 96.5625C35.8741 96.839 36.3362 96.9773 36.8665 96.9773C37.215 96.9773 37.5312 96.9167 37.8153 96.7955C38.0994 96.6742 38.34 96.5 38.5369 96.2727C38.7339 96.0455 38.8741 95.7727 38.9574 95.4545H40.2983C40.2225 95.9697 40.035 96.4337 39.7358 96.8466C39.4403 97.2557 39.0483 97.5814 38.5597 97.8239C38.0748 98.0625 37.5104 98.1818 36.8665 98.1818Z" fill="white"/>
<path d="M80 1H110V31H80V1Z" stroke="#4F4F4F" stroke-dasharray="2 2"/>
<path d="M110 1H140V31H110V1Z" stroke="#4F4F4F" stroke-dasharray="2 2"/>
<path d="M140 1H170V31H140V1Z" stroke="#4F4F4F" stroke-dasharray="2 2"/>
<path d="M80 31H110V61H80V31Z" stroke="#4F4F4F" stroke-dasharray="2 2"/>
<path d="M110 31H140V61H110V31Z" stroke="#4F4F4F" stroke-dasharray="2 2"/>
<path d="M140 31H170V61H140V31Z" stroke="#4F4F4F" stroke-dasharray="2 2"/>
<path d="M80 61H110V91H80V61Z" stroke="#4F4F4F" stroke-dasharray="2 2"/>
<path d="M110 61H140V91H110V61Z" stroke="#4F4F4F" stroke-dasharray="2 2"/>
<path d="M140 61H170V91H140V61Z" stroke="#4F4F4F" stroke-dasharray="2 2"/>
<path d="M80 91H110V121H80V91Z" stroke="#4F4F4F" stroke-dasharray="2 2"/>
<path d="M110 91H140V121H110V91Z" stroke="#4F4F4F" stroke-dasharray="2 2"/>
<path d="M140 91H170V121H140V91Z" stroke="#4F4F4F" stroke-dasharray="2 2"/>
<path d="M170 1H200V31H170V1Z" stroke="#4F4F4F" stroke-dasharray="2 2"/>
<g filter="url(#filter0_d_112_485)">
<path d="M200 1H230V31H200V1Z" stroke="#4F4F4F" stroke-dasharray="2 2" shape-rendering="crispEdges"/>
</g>
<g filter="url(#filter1_d_112_485)">
<path d="M230 1H260V31H230V1Z" stroke="#4F4F4F" stroke-dasharray="2 2" shape-rendering="crispEdges"/>
</g>
<path d="M170 31H200V61H170V31Z" stroke="#4F4F4F" stroke-dasharray="2 2"/>
<path d="M200 31H230V61H200V31Z" stroke="#4F4F4F" stroke-dasharray="2 2"/>
<path d="M230 31H260V61H230V31Z" stroke="#4F4F4F" stroke-dasharray="2 2"/>
<path d="M170 61H200V91H170V61Z" stroke="#4F4F4F" stroke-dasharray="2 2"/>
<path d="M200 61H230V91H200V61Z" stroke="#4F4F4F" stroke-dasharray="2 2"/>
<path d="M230 61H260V91H230V61Z" stroke="#4F4F4F" stroke-dasharray="2 2"/>
<path d="M170 91H200V121H170V91Z" stroke="#4F4F4F" stroke-dasharray="2 2"/>
<path d="M200 91H230V121H200V91Z" stroke="#4F4F4F" stroke-dasharray="2 2"/>
<path d="M230 91H260V121H230V91Z" stroke="#4F4F4F" stroke-dasharray="2 2"/>
<path d="M260 1H290V31H260V1Z" stroke="#4F4F4F" stroke-dasharray="2 2"/>
<path d="M290 1H320V31H290V1Z" stroke="#4F4F4F" stroke-dasharray="2 2"/>
<path d="M320 1H350V31H320V1Z" stroke="#4F4F4F" stroke-dasharray="2 2"/>
<path d="M260 31H290V61H260V31Z" stroke="#4F4F4F" stroke-dasharray="2 2"/>
<path d="M290 31H320V61H290V31Z" stroke="#4F4F4F" stroke-dasharray="2 2"/>
<path d="M320 31H350V61H320V31Z" stroke="#4F4F4F" stroke-dasharray="2 2"/>
<path d="M260 61H290V91H260V61Z" stroke="#4F4F4F" stroke-dasharray="2 2"/>
<path d="M290 61H320V91H290V61Z" stroke="#4F4F4F" stroke-dasharray="2 2"/>
<path d="M320 61H350V91H320V61Z" stroke="#4F4F4F" stroke-dasharray="2 2"/>
<path d="M260 91H290V121H260V91Z" stroke="#4F4F4F" stroke-dasharray="2 2"/>
<path d="M290 91H320V121H290V91Z" stroke="#4F4F4F" stroke-dasharray="2 2"/>
<path d="M320 91H350V121H320V91Z" stroke="#4F4F4F" stroke-dasharray="2 2"/>
<path d="M350 1H380V31H350V1Z" stroke="#4F4F4F" stroke-dasharray="2 2"/>
<path d="M350 31H380V61H350V31Z" stroke="#4F4F4F" stroke-dasharray="2 2"/>
<path d="M350 61H380V91H350V61Z" stroke="#4F4F4F" stroke-dasharray="2 2"/>
<path d="M350 91H380V121H350V91Z" stroke="#4F4F4F" stroke-dasharray="2 2"/>
<path d="M80 121H110V151H80V121Z" stroke="#4F4F4F" stroke-dasharray="2 2"/>
<path d="M110 121H140V151H110V121Z" stroke="#4F4F4F" stroke-dasharray="2 2"/>
<path d="M140 121H170V151H140V121Z" stroke="#4F4F4F" stroke-dasharray="2 2"/>
<path d="M170 121H200V151H170V121Z" stroke="#4F4F4F" stroke-dasharray="2 2"/>
<path d="M200 121H230V151H200V121Z" stroke="#4F4F4F" stroke-dasharray="2 2"/>
<path d="M230 121H260V151H230V121Z" stroke="#4F4F4F" stroke-dasharray="2 2"/>
<path d="M260 121H290V151H260V121Z" stroke="#4F4F4F" stroke-dasharray="2 2"/>
<path d="M290 121H320V151H290V121Z" stroke="#4F4F4F" stroke-dasharray="2 2"/>
<path d="M320 121H350V151H320V121Z" stroke="#4F4F4F" stroke-dasharray="2 2"/>
<path d="M350 121H380V151H350V121Z" stroke="#4F4F4F" stroke-dasharray="2 2"/>
<path d="M80 151H110V181H80V151Z" stroke="#4F4F4F" stroke-dasharray="2 2"/>
<path d="M110 151H140V181H110V151Z" stroke="#4F4F4F" stroke-dasharray="2 2"/>
<path d="M140 151H170V181H140V151Z" stroke="#4F4F4F" stroke-dasharray="2 2"/>
<path d="M80 181H110V211H80V181Z" stroke="#4F4F4F" stroke-dasharray="2 2"/>
<path d="M110 181H140V211H110V181Z" stroke="#4F4F4F" stroke-dasharray="2 2"/>
<path d="M140 181H170V211H140V181Z" stroke="#4F4F4F" stroke-dasharray="2 2"/>
<path d="M80 211H110V241H80V211Z" stroke="#4F4F4F" stroke-dasharray="2 2"/>
<path d="M110 211H140V241H110V211Z" stroke="#4F4F4F" stroke-dasharray="2 2"/>
<path d="M140 211H170V241H140V211Z" stroke="#4F4F4F" stroke-dasharray="2 2"/>
<path d="M80 241H110V271H80V241Z" stroke="#4F4F4F" stroke-dasharray="2 2"/>
<path d="M110 241H140V271H110V241Z" stroke="#4F4F4F" stroke-dasharray="2 2"/>
<path d="M140 241H170V271H140V241Z" stroke="#4F4F4F" stroke-dasharray="2 2"/>
<path d="M170 151H200V181H170V151Z" stroke="#4F4F4F" stroke-dasharray="2 2"/>
<path d="M200 151H230V181H200V151Z" stroke="#4F4F4F" stroke-dasharray="2 2"/>
<path d="M230 151H260V181H230V151Z" stroke="#4F4F4F" stroke-dasharray="2 2"/>
<path d="M170 181H200V211H170V181Z" stroke="#4F4F4F" stroke-dasharray="2 2"/>
<path d="M200 181H230V211H200V181Z" stroke="#4F4F4F" stroke-dasharray="2 2"/>
<path d="M230 181H260V211H230V181Z" stroke="#4F4F4F" stroke-dasharray="2 2"/>
<path d="M170 211H200V241H170V211Z" stroke="#4F4F4F" stroke-dasharray="2 2"/>
<path d="M200 211H230V241H200V211Z" stroke="#4F4F4F" stroke-dasharray="2 2"/>
<path d="M230 211H260V241H230V211Z" stroke="#4F4F4F" stroke-dasharray="2 2"/>
<path d="M170 241H200V271H170V241Z" stroke="#4F4F4F" stroke-dasharray="2 2"/>
<path d="M200 241H230V271H200V241Z" stroke="#4F4F4F" stroke-dasharray="2 2"/>
<path d="M230 241H260V271H230V241Z" stroke="#4F4F4F" stroke-dasharray="2 2"/>
<path d="M260 151H290V181H260V151Z" stroke="#4F4F4F" stroke-dasharray="2 2"/>
<path d="M290 151H320V181H290V151Z" stroke="#4F4F4F" stroke-dasharray="2 2"/>
<path d="M320 151H350V181H320V151Z" stroke="#4F4F4F" stroke-dasharray="2 2"/>
<path d="M260 181H290V211H260V181Z" stroke="#4F4F4F" stroke-dasharray="2 2"/>
<path d="M290 181H320V211H290V181Z" stroke="#4F4F4F" stroke-dasharray="2 2"/>
<path d="M320 181H350V211H320V181Z" stroke="#4F4F4F" stroke-dasharray="2 2"/>
<path d="M260 211H290V241H260V211Z" stroke="#4F4F4F" stroke-dasharray="2 2"/>
<path d="M290 211H320V241H290V211Z" stroke="#4F4F4F" stroke-dasharray="2 2"/>
<path d="M320 211H350V241H320V211Z" stroke="#4F4F4F" stroke-dasharray="2 2"/>
<path d="M260 241H290V271H260V241Z" stroke="#4F4F4F" stroke-dasharray="2 2"/>
<path d="M290 241H320V271H290V241Z" stroke="#4F4F4F" stroke-dasharray="2 2"/>
<path d="M320 241H350V271H320V241Z" stroke="#4F4F4F" stroke-dasharray="2 2"/>
<path d="M350 151H380V181H350V151Z" stroke="#4F4F4F" stroke-dasharray="2 2"/>
<path d="M350 181H380V211H350V181Z" stroke="#4F4F4F" stroke-dasharray="2 2"/>
<path d="M350 211H380V241H350V211Z" stroke="#4F4F4F" stroke-dasharray="2 2"/>
<path d="M350 241H380V271H350V241Z" stroke="#4F4F4F" stroke-dasharray="2 2"/>
<path d="M80 271H110V301H80V271Z" stroke="#4F4F4F" stroke-dasharray="2 2"/>
<path d="M110 271H140V301H110V271Z" stroke="#4F4F4F" stroke-dasharray="2 2"/>
<path d="M140 271H170V301H140V271Z" stroke="#4F4F4F" stroke-dasharray="2 2"/>
<path d="M170 271H200V301H170V271Z" stroke="#4F4F4F" stroke-dasharray="2 2"/>
<path d="M200 271H230V301H200V271Z" stroke="#4F4F4F" stroke-dasharray="2 2"/>
<path d="M230 271H260V301H230V271Z" stroke="#4F4F4F" stroke-dasharray="2 2"/>
<path d="M260 271H290V301H260V271Z" stroke="#4F4F4F" stroke-dasharray="2 2"/>
<path d="M290 271H320V301H290V271Z" stroke="#4F4F4F" stroke-dasharray="2 2"/>
<path d="M320 271H350V301H320V271Z" stroke="#4F4F4F" stroke-dasharray="2 2"/>
<path d="M350 271H380V301H350V271Z" stroke="#4F4F4F" stroke-dasharray="2 2"/>
<path d="M380 1H410V31H380V1Z" stroke="#4F4F4F" stroke-dasharray="2 2"/>
<path d="M410 1H440V31H410V1Z" stroke="#4F4F4F" stroke-dasharray="2 2"/>
<path d="M440 1H470V31H440V1Z" stroke="#4F4F4F" stroke-dasharray="2 2"/>
<path d="M380 31H410V61H380V31Z" stroke="#4F4F4F" stroke-dasharray="2 2"/>
<path d="M410 31H440V61H410V31Z" stroke="#4F4F4F" stroke-dasharray="2 2"/>
<path d="M440 31H470V61H440V31Z" stroke="#4F4F4F" stroke-dasharray="2 2"/>
<path d="M380 61H410V91H380V61Z" stroke="#4F4F4F" stroke-dasharray="2 2"/>
<path d="M410 61H440V91H410V61Z" stroke="#4F4F4F" stroke-dasharray="2 2"/>
<path d="M440 61H470V91H440V61Z" stroke="#4F4F4F" stroke-dasharray="2 2"/>
<path d="M380 91H410V121H380V91Z" stroke="#4F4F4F" stroke-dasharray="2 2"/>
<path d="M410 91H440V121H410V91Z" stroke="#4F4F4F" stroke-dasharray="2 2"/>
<path d="M440 91H470V121H440V91Z" stroke="#4F4F4F" stroke-dasharray="2 2"/>
<path d="M470 1H500V31H470V1Z" stroke="#4F4F4F" stroke-dasharray="2 2"/>
<g filter="url(#filter2_d_112_485)">
<path d="M500 1H530V31H500V1Z" stroke="#4F4F4F" stroke-dasharray="2 2" shape-rendering="crispEdges"/>
</g>
<g filter="url(#filter3_d_112_485)">
<path d="M530 1H560V31H530V1Z" stroke="#4F4F4F" stroke-dasharray="2 2" shape-rendering="crispEdges"/>
</g>
<path d="M470 31H500V61H470V31Z" stroke="#4F4F4F" stroke-dasharray="2 2"/>
<path d="M500 31H530V61H500V31Z" stroke="#4F4F4F" stroke-dasharray="2 2"/>
<path d="M530 31H560V61H530V31Z" stroke="#4F4F4F" stroke-dasharray="2 2"/>
<path d="M470 61H500V91H470V61Z" stroke="#4F4F4F" stroke-dasharray="2 2"/>
<path d="M500 61H530V91H500V61Z" stroke="#4F4F4F" stroke-dasharray="2 2"/>
<path d="M530 61H560V91H530V61Z" stroke="#4F4F4F" stroke-dasharray="2 2"/>
<path d="M470 91H500V121H470V91Z" stroke="#4F4F4F" stroke-dasharray="2 2"/>
<path d="M500 91H530V121H500V91Z" stroke="#4F4F4F" stroke-dasharray="2 2"/>
<path d="M530 91H560V121H530V91Z" stroke="#4F4F4F" stroke-dasharray="2 2"/>
<path d="M380 121H410V151H380V121Z" stroke="#4F4F4F" stroke-dasharray="2 2"/>
<path d="M410 121H440V151H410V121Z" stroke="#4F4F4F" stroke-dasharray="2 2"/>
<path d="M440 121H470V151H440V121Z" stroke="#4F4F4F" stroke-dasharray="2 2"/>
<path d="M470 121H500V151H470V121Z" stroke="#4F4F4F" stroke-dasharray="2 2"/>
<path d="M500 121H530V151H500V121Z" stroke="#4F4F4F" stroke-dasharray="2 2"/>
<path d="M530 121H560V151H530V121Z" stroke="#4F4F4F" stroke-dasharray="2 2"/>
<path d="M380 151H410V181H380V151Z" stroke="#4F4F4F" stroke-dasharray="2 2"/>
<path d="M410 151H440V181H410V151Z" stroke="#4F4F4F" stroke-dasharray="2 2"/>
<path d="M440 151H470V181H440V151Z" stroke="#4F4F4F" stroke-dasharray="2 2"/>
<path d="M380 181H410V211H380V181Z" stroke="#4F4F4F" stroke-dasharray="2 2"/>
<path d="M410 181H440V211H410V181Z" stroke="#4F4F4F" stroke-dasharray="2 2"/>
<path d="M440 181H470V211H440V181Z" stroke="#4F4F4F" stroke-dasharray="2 2"/>
<path d="M380 211H410V241H380V211Z" stroke="#4F4F4F" stroke-dasharray="2 2"/>
<path d="M410 211H440V241H410V211Z" stroke="#4F4F4F" stroke-dasharray="2 2"/>
<path d="M440 211H470V241H440V211Z" stroke="#4F4F4F" stroke-dasharray="2 2"/>
<path d="M380 241H410V271H380V241Z" stroke="#4F4F4F" stroke-dasharray="2 2"/>
<path d="M410 241H440V271H410V241Z" stroke="#4F4F4F" stroke-dasharray="2 2"/>
<path d="M440 241H470V271H440V241Z" stroke="#4F4F4F" stroke-dasharray="2 2"/>
<path d="M470 151H500V181H470V151Z" stroke="#4F4F4F" stroke-dasharray="2 2"/>
<path d="M500 151H530V181H500V151Z" stroke="#4F4F4F" stroke-dasharray="2 2"/>
<path d="M530 151H560V181H530V151Z" stroke="#4F4F4F" stroke-dasharray="2 2"/>
<path d="M470 181H500V211H470V181Z" stroke="#4F4F4F" stroke-dasharray="2 2"/>
<path d="M500 181H530V211H500V181Z" stroke="#4F4F4F" stroke-dasharray="2 2"/>
<path d="M530 181H560V211H530V181Z" stroke="#4F4F4F" stroke-dasharray="2 2"/>
<path d="M470 211H500V241H470V211Z" stroke="#4F4F4F" stroke-dasharray="2 2"/>
<path d="M500 211H530V241H500V211Z" stroke="#4F4F4F" stroke-dasharray="2 2"/>
<path d="M530 211H560V241H530V211Z" stroke="#4F4F4F" stroke-dasharray="2 2"/>
<path d="M470 241H500V271H470V241Z" stroke="#4F4F4F" stroke-dasharray="2 2"/>
<path d="M500 241H530V271H500V241Z" stroke="#4F4F4F" stroke-dasharray="2 2"/>
<path d="M530 241H560V271H530V241Z" stroke="#4F4F4F" stroke-dasharray="2 2"/>
<path d="M380 271H410V301H380V271Z" stroke="#4F4F4F" stroke-dasharray="2 2"/>
<path d="M410 271H440V301H410V271Z" stroke="#4F4F4F" stroke-dasharray="2 2"/>
<path d="M440 271H470V301H440V271Z" stroke="#4F4F4F" stroke-dasharray="2 2"/>
<path d="M470 271H500V301H470V271Z" stroke="#4F4F4F" stroke-dasharray="2 2"/>
<path d="M500 271H530V301H500V271Z" stroke="#4F4F4F" stroke-dasharray="2 2"/>
<path d="M530 271H560V301H530V271Z" stroke="#4F4F4F" stroke-dasharray="2 2"/>
<path d="M561 151L80 151" stroke="#7A7A7A" stroke-width="1.5"/>
<defs>
<filter id="filter0_d_112_485" x="195.5" y="0.5" width="39" height="39" filterUnits="userSpaceOnUse" color-interpolation-filters="sRGB">
<feFlood flood-opacity="0" result="BackgroundImageFix"/>
<feColorMatrix in="SourceAlpha" type="matrix" values="0 0 0 0 0 0 0 0 0 0 0 0 0 0 0 0 0 0 127 0" result="hardAlpha"/>
<feOffset dy="4"/>
<feGaussianBlur stdDeviation="2"/>
<feComposite in2="hardAlpha" operator="out"/>
<feColorMatrix type="matrix" values="0 0 0 0 0 0 0 0 0 0 0 0 0 0 0 0 0 0 0.25 0"/>
<feBlend mode="normal" in2="BackgroundImageFix" result="effect1_dropShadow_112_485"/>
<feBlend mode="normal" in="SourceGraphic" in2="effect1_dropShadow_112_485" result="shape"/>
</filter>
<filter id="filter1_d_112_485" x="225.5" y="0.5" width="39" height="39" filterUnits="userSpaceOnUse" color-interpolation-filters="sRGB">
<feFlood flood-opacity="0" result="BackgroundImageFix"/>
<feColorMatrix in="SourceAlpha" type="matrix" values="0 0 0 0 0 0 0 0 0 0 0 0 0 0 0 0 0 0 127 0" result="hardAlpha"/>
<feOffset dy="4"/>
<feGaussianBlur stdDeviation="2"/>
<feComposite in2="hardAlpha" operator="out"/>
<feColorMatrix type="matrix" values="0 0 0 0 0 0 0 0 0 0 0 0 0 0 0 0 0 0 0.25 0"/>
<feBlend mode="normal" in2="BackgroundImageFix" result="effect1_dropShadow_112_485"/>
<feBlend mode="normal" in="SourceGraphic" in2="effect1_dropShadow_112_485" result="shape"/>
</filter>
<filter id="filter2_d_112_485" x="495.5" y="0.5" width="39" height="39" filterUnits="userSpaceOnUse" color-interpolation-filters="sRGB">
<feFlood flood-opacity="0" result="BackgroundImageFix"/>
<feColorMatrix in="SourceAlpha" type="matrix" values="0 0 0 0 0 0 0 0 0 0 0 0 0 0 0 0 0 0 127 0" result="hardAlpha"/>
<feOffset dy="4"/>
<feGaussianBlur stdDeviation="2"/>
<feComposite in2="hardAlpha" operator="out"/>
<feColorMatrix type="matrix" values="0 0 0 0 0 0 0 0 0 0 0 0 0 0 0 0 0 0 0.25 0"/>
<feBlend mode="normal" in2="BackgroundImageFix" result="effect1_dropShadow_112_485"/>
<feBlend mode="normal" in="SourceGraphic" in2="effect1_dropShadow_112_485" result="shape"/>
</filter>
<filter id="filter3_d_112_485" x="525.5" y="0.5" width="39" height="39" filterUnits="userSpaceOnUse" color-interpolation-filters="sRGB">
<feFlood flood-opacity="0" result="BackgroundImageFix"/>
<feColorMatrix in="SourceAlpha" type="matrix" values="0 0 0 0 0 0 0 0 0 0 0 0 0 0 0 0 0 0 127 0" result="hardAlpha"/>
<feOffset dy="4"/>
<feGaussianBlur stdDeviation="2"/>
<feComposite in2="hardAlpha" operator="out"/>
<feColorMatrix type="matrix" values="0 0 0 0 0 0 0 0 0 0 0 0 0 0 0 0 0 0 0.25 0"/>
<feBlend mode="normal" in2="BackgroundImageFix" result="effect1_dropShadow_112_485"/>
<feBlend mode="normal" in="SourceGraphic" in2="effect1_dropShadow_112_485" result="shape"/>
</filter>
</defs>
</svg>
